<svg width="68" height="122" viewBox="0 0 68 122" fill="none" xmlns="http://www.w3.org/2000/svg">
<path d="M7.22656 51.501L25.6641 15.6424L35.8047 5.29862L63 3L56.7773 11.8274L35.8047 44.6051L48.9414 42.7662L29.8125 69.4303H45.3943L4 120L19.2109 81.1532L4 82.5324L15.7539 51.501H7.22656Z" fill="#FD0000"/>
<path d="M25.6641 15.6424L7.22656 51.501H15.7539L4 82.5324L19.2109 81.1532L4 120L45.3943 69.4303H29.8125L48.9414 42.7662L35.8047 44.6051L56.7773 11.8274M25.6641 15.6424L35.8047 5.29862L63 3L56.7773 11.8274M25.6641 15.6424L56.7773 11.8274" stroke="#FFF500" stroke-width="4"/>
</svg>
